<?xml version="1.0" encoding="UTF-8" standalone="no"?>
<!DOCTYPE svg PUBLIC "-//W3C//DTD SVG 1.1//EN" "http://www.w3.org/Graphics/SVG/1.1/DTD/svg11.dtd">
<svg width="100%" height="100%" viewBox="0 0 32 32" version="1.1" xmlns="http://www.w3.org/2000/svg" xmlns:xlink="http://www.w3.org/1999/xlink" xml:space="preserve" xmlns:serif="http://www.serif.com/" style="fill-rule:evenodd;clip-rule:evenodd;stroke-linecap:round;stroke-linejoin:round;stroke-miterlimit:1.5;">
    <rect id="ammonite" x="0" y="0" width="32" height="32" style="fill:none;"/>
    <g id="outline">
        <path d="M13.5,2L13.5,9C7.283,9 3,12.783 3,19C3,25.846 8.617,30 15.932,30C24.224,30 29,23.181 29,17C29,9.183 23,2 13.5,2Z" style="fill:none;stroke:#000;stroke-width:4px;"/>
    </g>
    <g id="emoji">
        <path d="M13.5,7C13.735,6.998 14.3,8.48 13.873,9.044C13.428,9.633 11.981,9.3 11.817,9.097C11.127,9.179 10.467,9.312 9.84,9.494C10.947,10.114 8.253,10.841 7.294,10.617C6.246,11.27 5.361,12.111 4.672,13.12C6.091,12.862 4.257,15.203 3.5,15.556C3.173,16.598 3,17.75 3,19C3,19.225 3.006,19.448 3.018,19.667C3.936,18.594 3.773,21.981 3.544,22.491C4.037,23.972 4.848,25.261 5.913,26.333C5.925,26.018 7.908,27.425 7.965,27.948C9.163,28.682 10.536,29.231 12.037,29.575C11.494,28.49 14.017,29.159 14.539,29.948C14.996,29.983 15.46,30 15.932,30C17.516,30 18.972,29.751 20.291,29.305C19.068,28.693 21.674,27.838 22.751,28.162C24.666,27 26.171,25.375 27.224,23.537C26.89,23.648 27.833,21.173 28.386,20.889C28.792,19.61 29,18.291 29,17C29,16.522 28.978,16.047 28.933,15.576C27.885,16.995 28.117,13.189 28.35,12.6C27.799,10.782 26.91,9.081 25.719,7.597C25.533,9.779 23.871,7.47 23.81,5.627C22.39,4.416 20.707,3.45 18.793,2.821C19.307,4.529 16.986,3.617 16.511,2.253L16.488,2.249C15.5,2.083 14.502,2.003 13.5,2L13.5,7Z" style="fill:#a39574;"/>
        <path d="M12.037,29.575C12.837,29.758 13.673,29.884 14.539,29.948C14.017,29.159 12.976,27.371 12.868,25.539L10.872,25.656C10.956,27.082 11.494,28.49 12.037,29.575ZM20.291,29.305C21.173,29.007 21.994,28.621 22.751,28.162C21.674,27.838 19.615,27.012 18.398,25.2L16.738,26.316C17.697,27.744 19.068,28.693 20.291,29.305ZM5.913,26.333C6.519,26.943 7.207,27.483 7.965,27.948C7.908,27.425 7.855,26.553 7.978,25.603C8.101,24.652 8.394,23.61 9.095,22.802L7.584,21.492C6.615,22.609 6.164,24.032 5.994,25.347C5.95,25.686 5.925,26.018 5.913,26.333ZM28.386,20.889C27.833,21.173 26.852,21.619 25.701,21.895C24.576,22.164 23.279,22.279 22.079,21.848L21.402,23.73C22.981,24.298 24.687,24.194 26.166,23.84C26.536,23.751 26.89,23.648 27.224,23.537C27.709,22.691 28.098,21.8 28.386,20.889ZM3.018,19.667C3.073,20.672 3.253,21.615 3.544,22.491C3.773,21.981 4.978,19.644 8.265,18.466L7.59,16.583C5.386,17.373 3.936,18.594 3.018,19.667ZM28.35,12.6C28.117,13.189 26.684,16.412 22.816,17.578L23.393,19.493C26.137,18.666 27.885,16.995 28.933,15.576C28.838,14.561 28.642,13.563 28.35,12.6ZM4.672,13.12C4.176,13.847 3.781,14.661 3.5,15.556C4.257,15.203 6.528,14.368 8.841,15.742L9.863,14.023C7.966,12.896 6.091,12.862 4.672,13.12ZM23.81,5.627C23.871,7.47 23.673,10.926 21.626,13.178L23.106,14.523C24.908,12.541 25.533,9.779 25.719,7.597C25.151,6.888 24.513,6.227 23.81,5.627ZM9.84,9.494C8.913,9.763 8.06,10.14 7.294,10.617C8.253,10.841 10.096,11.529 11.02,13.583C11.246,14.086 11.839,14.311 12.342,14.084C12.845,13.858 13.07,13.265 12.844,12.762C12.107,11.124 10.947,10.114 9.84,9.494ZM13.5,9L13.5,9C12.922,9 12.36,9.033 11.817,9.097C12.351,9.759 13.371,11.272 13.45,13.261L15.448,13.182C15.381,11.474 14.776,10.037 14.172,9.012C13.94,9.001 13.719,8.998 13.511,9L13.5,9ZM16.511,2.253C16.986,3.617 17.914,6.647 17.986,9.682L19.985,9.635C19.925,7.081 19.307,4.529 18.793,2.821C18.065,2.581 17.303,2.39 16.511,2.253Z" style="fill:#ccc1ae;"/>
        <g id="Layer1">
            <path d="M20.886,11.603C20.886,11.603 20.376,13.881 17.327,16.208" style="fill:none;stroke:#ccc1ae;stroke-width:2px;stroke-linecap:butt;"/>
            <path d="M17.074,8.887C17.074,8.887 18.173,11.024 16.79,14.118" style="fill:none;stroke:#ccc1ae;stroke-width:2px;stroke-linecap:butt;"/>
            <path d="M23.013,18.313C23.013,18.313 20.723,20.904 17.087,19.704" style="fill:none;stroke:#ccc1ae;stroke-width:2px;stroke-linecap:butt;"/>
            <path d="M22.53,15.025C22.53,15.025 21.209,17.301 17.735,17.972" style="fill:none;stroke:#ccc1ae;stroke-width:2px;stroke-linecap:butt;"/>
            <path d="M16.938,25.361C16.938,25.361 14.193,23.654 14.167,20.26" style="fill:none;stroke:#ccc1ae;stroke-width:2px;stroke-linecap:butt;"/>
            <path d="M21.501,22.442C21.501,22.442 17.338,23.315 15.57,20.599" style="fill:none;stroke:#ccc1ae;stroke-width:2px;stroke-linecap:butt;"/>
            <path d="M12.564,24.999C12.564,24.999 11.582,21.388 12.65,19.436" style="fill:none;stroke:#ccc1ae;stroke-width:2px;stroke-linecap:butt;"/>
            <path d="M8.984,23.16C8.984,23.16 8.23,20.087 12.539,18.619" style="fill:none;stroke:#ccc1ae;stroke-width:2px;stroke-linecap:butt;"/>
            <path d="M7.874,19.012C7.874,19.012 8.975,17.633 12.429,18.36" style="fill:none;stroke:#ccc1ae;stroke-width:2px;stroke-linecap:butt;"/>
        </g>
        <path d="M13.5,7L13.5,9L13.511,9C15.523,8.978 18.764,9.448 20.981,12.97C23.955,17.697 21.473,24.634 15.407,24.703C11.632,24.746 9.175,22.415 9.039,19.266C8.94,16.97 10.23,14.637 12.76,14.225C14.827,13.889 16.985,14.802 17.274,17.023C17.456,18.424 16.69,19.948 15.124,19.938C14.277,19.932 13.695,19.173 13.816,18.384C13.9,17.839 13.525,17.328 12.979,17.244C12.434,17.16 11.923,17.535 11.839,18.081C11.537,20.045 13.001,21.923 15.11,21.938C17.977,21.957 19.591,19.33 19.257,16.765C18.812,13.344 15.622,11.733 12.439,12.251C8.837,12.838 6.9,16.083 7.041,19.352C7.222,23.547 10.401,26.76 15.43,26.703C23.124,26.615 26.446,17.9 22.673,11.905C19.949,7.576 15.978,6.975 13.5,7Z" style="fill:#6c5e3f;"/>
    </g>
</svg>
